<svg width="96" height="96" viewBox="0 0 96 96" fill="none" xmlns="http://www.w3.org/2000/svg">
<path d="M70.4624 88.1962C73.1263 90.5575 77.6422 91.0814 81.2026 90.2218C85.6337 89.1555 88.685 85.4549 89.7549 81.0017C90.7843 76.7255 90.9872 71.1027 89.0761 67.0405C86.1244 72.9438 75.7938 69.9921 71.2262 74.7738C68.1713 77.9689 68.4148 81.7986 68.4148 81.7986" stroke="white" stroke-width="3.43985" stroke-linecap="round" stroke-linejoin="round"/>
<path d="M25.042 7.51407C22.3782 5.15278 17.8622 4.62887 14.3019 5.48853C9.87075 6.5548 6.81952 10.2554 5.74956 14.7086C4.72388 18.9848 4.51726 24.6076 6.42843 28.6698C9.38004 22.7665 19.7107 25.7181 24.2783 20.9365C27.3332 17.7414 27.0897 13.9117 27.0897 13.9117" stroke="white" stroke-width="3.43985" stroke-linecap="round" stroke-linejoin="round"/>
<path d="M80.1513 80.1529C71.8684 88.4617 60.4087 93.6049 47.75 93.6049C22.4842 93.6049 2 73.1207 2 47.8549C2 43.2652 2.67518 38.834 3.9333 34.6538" stroke="white" stroke-width="3.43985" stroke-linecap="round" stroke-linejoin="round"/>
<path d="M15.3477 15.557C23.6306 7.24816 35.0903 2.10498 47.749 2.10498C73.0148 2.10498 93.499 22.5892 93.499 47.855C93.499 52.4447 92.8238 56.8759 91.5657 61.0561" stroke="white" stroke-width="3.43985" stroke-linecap="round" stroke-linejoin="round"/>
<path d="M46.2761 52.2827V75.8956L66.9374 44.9037H49.2277V19.8149L28.5664 50.8069H46.2761V52.2827Z" stroke="white" stroke-width="3.43985" stroke-linecap="round" stroke-linejoin="round"/>
</svg>
