<svg width="160" height="121" viewBox="0 0 160 121" fill="none" xmlns="http://www.w3.org/2000/svg">
<path d="M14 54.4937L2 102.494H98L86 54.4937H14Z" stroke="white" stroke-width="4" stroke-linecap="round" stroke-linejoin="round"/>
<path d="M38 54.4937L30 102.494" stroke="white" stroke-width="4" stroke-linecap="round" stroke-linejoin="round"/>
<path d="M62 54.4937L70 102.494" stroke="white" stroke-width="4" stroke-linecap="round" stroke-linejoin="round"/>
<path d="M9.26953 78.4937H89.9995" stroke="white" stroke-width="4" stroke-linecap="round" stroke-linejoin="round"/>
<path d="M50 102.494V118.494" stroke="white" stroke-width="4" stroke-linecap="round" stroke-linejoin="round"/>
<path d="M102.916 32.5874C102.916 32.5874 102.831 30.5083 102.275 28.9196C100.715 24.4739 97.2449 19.4106 89.7019 19.4106C78.5665 19.4106 74.3094 28.8441 74.63 28.797C81.9515 27.6702 82.7812 37.0754 88.6931 39.5034C91.4368 40.6301 95.0433 40.418 97.2496 38.2682" stroke="white" stroke-width="4" stroke-linecap="round" stroke-linejoin="round"/>
<path d="M106.675 43.9018C106.675 34.4966 99.1319 26.9536 89.7031 26.9536" stroke="white" stroke-width="4" stroke-linecap="round" stroke-linejoin="round"/>
<path d="M112.648 23.853C112.648 23.853 112.783 20.5477 113.668 18.0219C116.149 10.954 121.665 2.9043 133.657 2.9043C151.361 2.9043 158.129 17.9019 157.619 17.827C145.979 16.0356 144.66 30.9883 135.261 34.8483C130.899 36.6396 125.173 36.3024 121.658 32.8846" stroke="white" stroke-width="4" stroke-linecap="round" stroke-linejoin="round"/>
<path d="M133.658 14.8965C118.668 14.8965 106.676 26.8886 106.676 41.8413V44.8768" stroke="white" stroke-width="4" stroke-linecap="round" stroke-linejoin="round"/>
<path d="M106.676 44.877L106.676 71.8592" stroke="white" stroke-width="4" stroke-linecap="round" stroke-linejoin="round"/>
</svg>
