<svg width="227" height="52" viewBox="0 0 227 52" fill="none" xmlns="http://www.w3.org/2000/svg">
<g clip-path="url(#clip0_417_387)">
<path d="M120.989 15.1279C121.095 15.1279 121.201 15.1372 121.312 15.1418C121.349 15.1418 121.386 15.1418 121.427 15.1418C121.621 15.1418 121.81 15.1418 122.004 15.1418C122.041 15.1418 122.082 15.1418 122.119 15.1418C122.198 15.1418 122.271 15.1418 122.35 15.1418C122.387 15.1418 122.424 15.1418 122.461 15.1372C122.539 15.1372 122.617 15.1372 122.696 15.1372C122.733 15.1372 122.77 15.1372 122.807 15.1372C122.885 15.1372 122.964 15.1372 123.042 15.1372C123.079 15.1372 123.116 15.1372 123.153 15.1372C123.231 15.1372 123.31 15.1372 123.388 15.1372C123.425 15.1372 123.462 15.1372 123.499 15.1372C124.006 15.1602 124.514 15.1787 125.021 15.2018C125.035 15.2848 125.054 15.3679 125.067 15.4509C125.067 15.5339 125.067 15.6216 125.063 15.7047C125.063 15.737 125.063 15.7646 125.063 15.7969C125.063 21.5412 125.058 27.2808 125.058 33.025C125.058 36.4624 125.058 39.8997 125.058 43.337C125.058 43.4523 125.058 43.5677 125.054 43.683C124.961 43.7153 124.869 43.7661 124.777 43.7707C123.573 43.803 122.368 43.8168 121.164 43.8583C120.753 43.8722 120.629 43.7199 120.629 43.3093C120.666 34.9951 120.694 26.681 120.717 18.3668C120.717 17.338 120.67 16.3091 120.643 15.2802C120.666 15.2479 120.694 15.2156 120.717 15.1833C120.74 15.1741 120.763 15.1602 120.786 15.1464C120.855 15.1464 120.92 15.1372 120.989 15.1325V15.1279Z" fill="#0065CE"/>
<path d="M82.8555 43.2396C82.8601 41.3341 82.8739 39.4286 82.8739 37.5277C82.8739 30.9115 82.8739 24.2952 82.8739 17.6743C82.8739 17.3883 82.8601 17.1022 82.8555 16.8162C82.8555 16.7885 82.8555 16.7562 82.8555 16.7285C82.8555 16.2394 82.8555 15.755 82.8555 15.2659C82.8647 15.2382 82.8739 15.2105 82.8785 15.1829L82.8924 15.1921C82.9201 15.1782 82.9477 15.1644 82.9754 15.1506C83.0539 15.1506 83.1323 15.1506 83.2107 15.1506C83.2753 15.1506 83.3445 15.1506 83.4091 15.1506C83.4876 15.1506 83.566 15.1506 83.6444 15.1506C83.6813 15.1506 83.7229 15.1506 83.7598 15.1506C84.1796 15.1506 84.5995 15.1413 85.024 15.1367C85.0655 15.1367 85.1024 15.1367 85.1439 15.1367H87.114C87.114 15.372 87.114 15.5151 87.114 15.6535C87.114 24.8765 87.114 34.095 87.114 43.3181C87.114 43.5211 87.2294 43.8118 86.8511 43.8302C86.708 43.821 86.565 43.8118 86.4266 43.7979C85.3885 43.7979 84.355 43.8025 83.3169 43.8072C83.2338 43.8118 83.1461 43.821 83.0631 43.8256C83.0123 43.8072 82.957 43.7933 82.9062 43.7749C82.9154 43.7426 82.9062 43.7241 82.8739 43.7149C82.8693 43.678 82.8647 43.6364 82.8601 43.5995C82.8601 43.5718 82.8601 43.5395 82.8601 43.5119C82.8601 43.4565 82.8601 43.3965 82.8601 43.3412C82.8601 43.3135 82.8601 43.2812 82.8601 43.2535L82.8555 43.2396Z" fill="#0065CE"/>
<path d="M226.804 43.7844C225.941 43.7798 225.078 43.7614 224.215 43.7706C223.717 43.7752 223.219 43.8121 222.72 43.8536C222.462 43.8767 222.305 43.789 222.158 43.5768C220.7 41.519 219.232 39.4659 217.765 37.4127C216.566 35.7333 215.361 34.0538 214.157 32.379C213.917 32.0422 213.793 32.0468 213.553 32.379C210.881 36.0885 208.21 39.8027 205.543 43.5168C205.285 43.8721 204.911 43.8444 204.551 43.8444C203.508 43.8398 202.461 43.8121 201.418 43.7983C201.386 43.7983 201.358 43.7983 201.326 43.8029C201.271 43.8029 201.211 43.8029 201.155 43.8029C201.012 43.7937 200.865 43.7798 200.722 43.7706H200.717C200.717 43.6829 200.708 43.5953 200.703 43.503C201.875 41.8743 203.052 40.2502 204.223 38.6215C206.318 35.7102 208.404 32.7989 210.498 29.8921C210.757 29.5323 211.043 29.1908 211.324 28.8448C211.472 28.6649 211.476 28.5172 211.324 28.3142C209.617 26.0626 207.924 23.8065 206.226 21.5457C204.786 19.6309 203.351 17.7116 201.917 15.7968C201.815 15.6584 201.7 15.5246 201.635 15.3678C201.612 15.3078 201.704 15.197 201.746 15.1094C201.783 15.114 201.815 15.1186 201.852 15.1278C202.493 15.1371 203.139 15.1463 203.781 15.1463C204.597 15.1463 205.409 15.1463 206.226 15.1463C206.263 15.1601 206.295 15.174 206.332 15.1924C207.13 16.2444 207.928 17.2917 208.717 18.3483C210.314 20.4845 211.91 22.6253 213.497 24.7708C213.733 25.0891 213.876 25.0614 214.097 24.7615C216.335 21.7441 218.586 18.7312 220.838 15.723C220.986 15.5246 221.179 15.3539 221.35 15.1694C221.415 15.1601 221.484 15.1463 221.548 15.1371C221.881 15.1371 222.217 15.1463 222.55 15.1509C222.591 15.1509 222.633 15.1509 222.674 15.1463C222.748 15.1463 222.822 15.1463 222.9 15.1463C222.942 15.1463 222.979 15.1463 223.02 15.1463C223.763 15.1601 224.501 15.174 225.244 15.1832C225.309 15.1832 225.369 15.1832 225.433 15.1832C225.613 15.1924 225.798 15.2017 225.978 15.2109C225.89 15.3954 225.826 15.5984 225.706 15.7599C223.675 18.4683 221.636 21.172 219.597 23.8803C218.545 25.2783 217.507 26.6901 216.441 28.0789C216.21 28.3788 216.233 28.5956 216.436 28.8771C219.855 33.6294 223.274 38.3862 226.688 43.1431C226.79 43.2815 226.896 43.4199 226.974 43.5722C226.997 43.6183 226.928 43.7106 226.901 43.7844C226.868 43.7844 226.841 43.7937 226.808 43.7983L226.804 43.7844Z" fill="#0065CE"/>
<path d="M33.5565 27.1281C34.4424 27.1281 35.3282 27.1235 36.2141 27.1189C36.251 27.1189 36.2833 27.1281 36.3202 27.1327C38.4564 27.2573 40.5834 27.4373 42.6873 27.834C45.8016 28.42 48.8329 29.2966 51.7074 30.6162C53.9497 31.6451 56.1274 32.8124 58.3236 33.9382C61.5026 35.5715 64.6676 37.2324 67.842 38.8704C68.3357 39.1241 68.857 39.3364 69.3692 39.567C69.3692 39.5993 69.3876 39.6178 69.4153 39.6316C69.4199 39.687 69.4291 39.7424 69.4338 39.7977C69.4338 39.83 69.4338 39.8577 69.4384 39.89C69.4291 42.5291 69.4199 45.1683 69.4153 47.8074C69.4153 48.6102 69.4199 49.413 69.4245 50.2158C69.4245 50.3312 69.4338 50.4465 69.4338 50.5618C69.4338 50.6172 69.4338 50.6772 69.4338 50.7326C69.3922 50.8156 69.3507 50.9033 69.3092 50.9863C67.4406 50.0313 65.572 49.0854 63.7126 48.1211C61.0965 46.7693 58.4943 45.399 55.8783 44.0471C53.1838 42.6583 50.5078 41.2419 47.781 39.9223C45.4833 38.8104 43.0287 38.1229 40.5188 37.6754C39.453 37.4862 38.3641 37.3985 37.2799 37.3109C36.1818 37.2232 35.0791 37.1402 33.9764 37.1494C33.1136 37.154 32.2462 37.2694 31.3926 37.3985C29.9023 37.62 28.4074 37.823 26.9449 38.1552C24.0381 38.815 21.3529 40.0284 18.723 41.4172C14.3075 43.7518 9.85517 46.0218 5.42127 48.3195C3.83872 49.1408 2.2654 49.9713 0.687463 50.7925C0.502909 50.8894 0.2999 50.9402 0 51.0509C0.0369108 50.2942 0.0692077 49.6437 0.101505 48.9931C0.106118 48.8639 0.110732 48.7348 0.110732 48.6056C0.110732 46.3679 0.11996 44.1301 0.110732 41.8924C0.110732 41.2788 0.0692077 40.6698 0.0276831 40.0561C0.00922769 39.7885 0.110732 39.6455 0.350652 39.5255C2.84674 38.2567 5.34283 36.9879 7.82508 35.7006C9.49529 34.8332 11.1332 33.9105 12.808 33.0523C16.3884 31.2206 20.0056 29.472 23.9459 28.4984C25.9252 28.0094 27.9138 27.5664 29.9531 27.405C31.0927 27.3173 32.2323 27.225 33.3719 27.1327C33.4365 27.1327 33.4965 27.1327 33.5611 27.1327L33.5565 27.1281Z" fill="#0065CE"/>
<path d="M0.213342 0.358808C0.693182 0.580273 1.17764 0.787896 1.64825 1.03243C4.20893 2.36583 6.76039 3.71307 9.32107 5.04647C12.6707 6.79051 16.0342 8.51147 19.3746 10.274C22.4705 11.9073 25.7325 13.0607 29.1744 13.6974C30.9923 14.0342 32.8286 14.1634 34.6788 14.1634C38.1991 14.1634 41.6641 13.7205 44.9769 12.4978C46.8962 11.7873 48.8064 11.0445 50.6011 10.0202C52.6681 8.84367 54.8413 7.84708 56.959 6.7536C58.7169 5.84006 60.4563 4.8896 62.2096 3.97145C62.9201 3.59773 63.6629 3.27937 64.3735 2.90565C65.7576 2.17666 67.1279 1.41999 68.5075 0.681777C68.7659 0.543362 69.0473 0.451085 69.4118 0.298828C69.4118 0.557203 69.4118 0.704847 69.4118 0.857103C69.4118 3.7546 69.421 6.65209 69.421 9.54959C69.421 10.1863 69.4026 10.823 69.3564 11.4551C69.3472 11.5889 69.1949 11.755 69.0611 11.8242C67.3402 12.747 65.6146 13.6605 63.8844 14.5602C60.5994 16.272 57.3235 18.0022 54.0154 19.6677C50.7488 21.3103 47.3345 22.5791 43.7311 23.2804C42.4762 23.5249 41.2166 23.7879 39.9478 23.9494C38.8866 24.0878 37.807 24.0832 36.7365 24.1524C36.1644 24.1893 35.5969 24.2585 35.0294 24.3047C34.8587 24.3185 34.6834 24.3185 34.5127 24.3047C33.2577 24.2216 31.9981 24.1616 30.7432 24.0417C29.7419 23.9448 28.7315 23.8294 27.7488 23.6218C25.8755 23.225 23.9977 22.8282 22.1522 22.3069C19.2224 21.481 16.4864 20.1845 13.8103 18.7496C11.4573 17.49 9.0627 16.2996 6.69579 15.0724C4.59188 13.9835 2.49258 12.8808 0.402509 11.7688C0.268708 11.695 0.13952 11.4689 0.134906 11.3121C0.116451 8.47456 0.121065 5.63243 0.121065 2.7903C0.121065 2.75801 0.121065 2.72571 0.121065 2.69341C0.121065 2.15359 0.111837 1.61377 0.107223 1.06934C0.0979956 0.917083 0.0933817 0.764826 0.084154 0.607956C0.0795402 0.561817 0.0749263 0.515679 0.0703125 0.474154C0.0795402 0.464927 0.0933817 0.451085 0.0933817 0.441857C0.0933817 0.414174 0.084154 0.391105 0.0795402 0.363422C0.0933817 0.344967 0.107223 0.326511 0.130292 0.308056C0.162589 0.321897 0.1995 0.335739 0.231797 0.34958L0.213342 0.358808Z" fill="#0065CE"/>
<path d="M151.454 43.7475C150.411 43.7567 149.363 43.7613 148.321 43.7705C148.164 43.7705 148.007 43.7844 147.85 43.7936C147.818 43.7936 147.79 43.7936 147.758 43.7936C147.698 43.7936 147.642 43.7982 147.583 43.8028C147.495 43.7982 147.412 43.789 147.324 43.7844C147.296 43.609 147.241 43.4291 147.241 43.2538C147.241 37.7172 147.26 32.1806 147.223 26.6439C147.213 24.9968 146.973 23.3635 146.189 21.8686C145.289 20.1569 143.891 19.0542 141.963 18.8189C138.521 18.4036 135.96 20.0831 134.724 23.2528C134.281 24.3924 134.092 25.5828 134.096 26.8193C134.115 32.3282 134.105 37.8325 134.105 43.3414C134.105 43.5445 134.184 43.7982 133.838 43.8121C133.695 43.8028 133.556 43.7936 133.413 43.7798C132.375 43.7798 131.342 43.7798 130.304 43.7844C130.161 43.7798 130.018 43.7705 129.87 43.7659C129.852 43.7521 129.828 43.7428 129.805 43.7382C129.792 43.6875 129.782 43.6321 129.768 43.5814C129.768 43.5491 129.759 43.5122 129.755 43.4799C129.755 35.9408 129.755 28.4018 129.755 20.8582C129.755 19.0818 129.755 17.3055 129.75 15.5246C129.75 15.46 129.759 15.3954 129.764 15.3354L129.87 15.0909C129.902 15.0955 129.939 15.1047 129.971 15.1093C130.078 15.1139 130.184 15.1232 130.285 15.1278C130.322 15.1278 130.364 15.1278 130.401 15.1278C130.479 15.1278 130.557 15.1278 130.636 15.1232C130.673 15.1232 130.714 15.1232 130.751 15.1232C130.94 15.1232 131.134 15.1278 131.323 15.1324C131.36 15.1324 131.402 15.1232 131.439 15.1232C131.512 15.1232 131.591 15.1232 131.665 15.1232C131.706 15.1232 131.743 15.1232 131.785 15.1232C131.859 15.1232 131.937 15.1232 132.011 15.1232C132.048 15.1232 132.089 15.1232 132.126 15.1232H134.096V19.1188L134.212 19.1972C134.341 19.0588 134.498 18.9342 134.599 18.7819C135.425 17.5685 136.412 16.5165 137.723 15.8106C138.756 15.257 139.854 14.9386 141.035 14.8233C142.604 14.671 144.127 14.7771 145.599 15.3354C147.601 16.0921 149.142 17.3747 150.032 19.3633C150.157 19.6401 150.305 19.9123 150.475 20.2584C150.798 19.7186 151.052 19.2433 151.352 18.8004C153.031 16.3366 155.385 15.077 158.356 14.8233C160.303 14.6572 162.176 14.8233 163.934 15.6907C166.633 17.0241 168.146 19.2433 168.755 22.1639C169.212 24.3555 169.198 26.5655 169.198 28.7801C169.198 33.6293 169.198 38.4738 169.198 43.323C169.198 43.3553 169.198 43.3922 169.198 43.4245C169.217 43.7198 169.046 43.7798 168.792 43.7751C168.073 43.7659 167.353 43.7567 166.633 43.7751C166.066 43.789 165.493 43.8351 164.857 43.872V43.2907C164.857 37.5372 164.894 31.7884 164.838 26.0349C164.82 24.1801 164.405 22.3807 163.168 20.8766C162.019 19.4832 160.543 18.8604 158.739 18.7866C154.942 18.6251 152.487 21.2919 151.73 24.4847C151.546 25.2644 151.463 26.0488 151.463 26.8516C151.481 32.2175 151.477 37.5787 151.481 42.9447C151.481 43.0738 151.495 43.203 151.5 43.3322C151.5 43.3599 151.5 43.3922 151.504 43.4199C151.504 43.5075 151.504 43.5906 151.504 43.6783C151.486 43.7013 151.472 43.729 151.454 43.7521V43.7475Z" fill="#0065CE"/>
<path d="M200.103 30.4507C198.119 30.4507 196.13 30.4507 194.146 30.4461C188.707 30.4415 183.267 30.4323 177.827 30.4277C177.758 30.4277 177.689 30.4415 177.536 30.46C177.578 30.8614 177.601 31.2489 177.661 31.6319C177.984 33.7173 178.635 35.669 180.037 37.3023C181.703 39.2493 183.839 40.3013 186.381 40.5781C186.497 40.592 186.612 40.6058 186.723 40.6197C186.778 40.6243 186.838 40.6289 186.893 40.6335C186.926 40.6335 186.953 40.6335 186.986 40.6381C187.212 40.6381 187.442 40.6381 187.668 40.6427C187.701 40.6427 187.728 40.6427 187.761 40.6427C189.708 40.7673 191.586 40.4351 193.413 39.7707C195.235 39.1063 196.841 38.1143 198.234 36.6287C198.266 36.8271 198.289 36.9147 198.289 37.007C198.289 38.4004 198.303 39.7892 198.28 41.1825C198.28 41.3671 198.156 41.607 198.008 41.7177C196.366 42.9543 194.492 43.6879 192.518 44.2046C190.594 44.7075 188.633 44.809 186.667 44.6983C184.462 44.5783 182.33 44.1262 180.383 42.9958C179.396 42.4237 178.399 41.8746 177.596 41.058C175.469 38.8941 174.085 36.3426 173.578 33.3252C173.319 31.8026 173.162 30.2662 173.259 28.7344C173.592 23.2624 175.76 18.8238 180.743 16.074C182.344 15.1927 184.079 14.6991 185.915 14.5837C186.409 14.5514 186.903 14.4591 187.396 14.4315C187.705 14.413 188.019 14.473 188.333 14.4914C190.252 14.6068 192.121 14.9528 193.805 15.9263C196.938 17.7304 199.162 20.2818 200.094 23.8206C200.347 24.7942 200.504 25.8 200.615 26.8012C200.735 27.8716 200.744 28.9558 200.799 30.0355C200.809 30.2247 200.822 30.4231 200.55 30.4415C200.518 30.4415 200.481 30.4415 200.449 30.4461C200.37 30.4461 200.287 30.4461 200.209 30.4507C200.172 30.4507 200.14 30.4507 200.103 30.4507ZM195.692 26.5751C195.733 26.5751 195.77 26.5751 195.812 26.5751C196.033 26.612 196.149 26.5659 196.144 26.289C196.13 25.3663 195.959 24.4758 195.567 23.6407C193.952 20.1988 190.418 17.9103 185.851 18.5885C182.118 19.1422 178.418 22.3581 177.887 26.1875C177.841 26.5151 177.878 26.6259 178.215 26.6259C182.99 26.612 187.765 26.6028 192.541 26.5936C193.593 26.5936 194.64 26.5797 195.692 26.5705V26.5751Z" fill="#0065CE"/>
<path d="M94.1273 15.1274C94.6671 15.1367 95.2023 15.1505 95.7422 15.1597C95.7791 15.1597 95.816 15.1597 95.8529 15.1597C95.899 15.1505 95.9498 15.1459 95.9959 15.1367C96.0375 15.1413 96.0744 15.1505 96.1159 15.1551C96.1482 15.192 96.1851 15.2289 96.2174 15.2659C96.2266 15.3258 96.2359 15.3812 96.2451 15.4412C96.2174 16.6177 96.1897 17.7896 96.1713 18.9662C96.1713 19.0492 96.2359 19.1876 96.2958 19.2015C96.3881 19.2199 96.5127 19.1784 96.605 19.1276C96.6742 19.0907 96.7203 19.0031 96.7711 18.9339C98.3951 16.59 100.656 15.2889 103.47 14.9337C104.329 14.8275 105.205 14.726 106.068 14.7722C109.39 14.9429 112.209 16.1563 114.202 18.9154C114.913 19.8982 115.3 21.0285 115.568 22.2235C115.914 23.7692 116.006 25.3194 116.006 26.8881C116.006 32.3648 116.006 37.846 116.002 43.3226C116.002 43.3549 116.002 43.3919 116.002 43.4242C115.992 43.5072 115.983 43.5856 115.974 43.6687C115.946 43.701 115.919 43.7287 115.895 43.761C115.577 43.7887 115.263 43.844 114.945 43.8394C114.078 43.8394 113.215 43.8071 112.347 43.7886C112.144 43.7794 111.946 43.7702 111.743 43.761C111.72 43.1704 111.692 42.5798 111.683 41.9892C111.683 41.837 111.738 41.6801 111.738 41.5279C111.743 36.5218 111.771 31.5158 111.738 26.5098C111.725 24.6643 111.286 22.9064 110.142 21.3884C109.113 20.0273 107.724 19.2199 106.073 18.9385C103.17 18.4402 100.517 18.9523 98.3674 21.1301C97.3709 22.1359 96.7572 23.3678 96.4804 24.7381C96.3143 25.5409 96.2174 26.3714 96.2128 27.1926C96.1897 32.3694 96.2036 37.5461 96.2128 42.7275C96.2128 42.9259 96.2266 43.1289 96.2312 43.3273C96.2312 43.3549 96.2312 43.3872 96.2359 43.4149C96.2359 43.5026 96.2359 43.5856 96.2359 43.6733C96.2174 43.6964 96.2036 43.7241 96.1851 43.7471C95.1424 43.7564 94.095 43.761 93.0523 43.7702C92.8954 43.7702 92.7386 43.784 92.5817 43.7933C92.5494 43.7933 92.5217 43.7933 92.4894 43.7933C92.4294 43.7933 92.3741 43.7979 92.3141 43.8025C92.2264 43.7979 92.1434 43.7886 92.0557 43.784C92.028 43.6364 91.9727 43.4887 91.9727 43.3411C91.9727 34.0719 91.9727 24.8027 91.9727 15.5381C91.9727 15.3997 92.0742 15.2612 92.1249 15.1182C92.1895 15.1182 92.2587 15.1182 92.3233 15.1182C92.4294 15.1182 92.5355 15.1182 92.6371 15.1182C92.6786 15.1182 92.7155 15.1182 92.757 15.1182C93.1769 15.1182 93.6013 15.1182 94.0212 15.1182C94.0627 15.1182 94.0996 15.1182 94.1412 15.1182L94.1273 15.1274Z" fill="#0065CE"/>
<path d="M124.769 12.2163H120.672V7.5332C122.102 7.5332 123.56 7.5332 125.023 7.5332C125.037 7.56089 125.055 7.58396 125.069 7.61164C125.069 7.667 125.06 7.72237 125.055 7.78235C125.055 7.81465 125.055 7.84233 125.055 7.87463C125.055 7.95768 125.055 8.04534 125.055 8.12839C125.055 8.16069 125.055 8.18837 125.055 8.22067C125.05 9.41104 125.046 10.5968 125.027 11.7872C125.027 11.9302 124.926 12.0686 124.87 12.2116C124.834 12.2116 124.801 12.2209 124.764 12.2209L124.769 12.2163Z" fill="#0065CE"/>
<path d="M82.8959 7.52903H87.113C87.113 8.72863 87.113 9.90054 87.113 11.0725C87.113 11.3585 87.1268 11.6492 87.1037 11.9306C87.0945 12.0368 87.0069 12.1336 86.9515 12.2351C86.8869 12.2305 86.8223 12.2213 86.7577 12.2167C85.5812 12.2121 84.4093 12.2075 83.2327 12.1982C83.1958 12.1982 83.1635 12.1982 83.1266 12.1982C83.0666 12.1936 83.0066 12.1844 82.9513 12.1798C82.9236 12.1521 82.9005 12.1244 82.8728 12.0967L82.859 12.0875C82.859 12.0552 82.8498 12.0275 82.8452 11.9952C82.8452 11.8799 82.8544 11.7692 82.8544 11.6538C82.8544 11.6215 82.8544 11.5938 82.8544 11.5615C82.8544 11.4785 82.8544 11.3908 82.8544 11.3078C82.8544 11.2755 82.8544 11.2478 82.8544 11.2155C82.8544 10.5557 82.8544 9.90054 82.8544 9.24076C82.8544 9.20847 82.8544 9.18078 82.8544 9.14849C82.8498 8.65942 82.8406 8.17497 82.8359 7.6859C82.8544 7.63053 82.8729 7.57517 82.8959 7.52441V7.52903Z" fill="#0065CE"/>
</g>
<defs>
<clipPath id="clip0_417_387">
<rect width="226.978" height="50.7615" fill="white" transform="translate(0 0.289551)"/>
</clipPath>
</defs>
</svg>
