<svg viewBox="0 0 240 55" fill="none" xmlns="http://www.w3.org/2000/svg">
<g clip-path="url(#clip0_417_250)">
<path d="M127.927 16.4211C128.04 16.4211 128.152 16.4309 128.269 16.4358C128.308 16.4358 128.347 16.4358 128.391 16.4358C128.596 16.4358 128.796 16.4358 129.001 16.4358C129.04 16.4358 129.084 16.4358 129.123 16.4358C129.206 16.4358 129.284 16.4358 129.367 16.4358C129.406 16.4358 129.445 16.4358 129.484 16.4309C129.567 16.4309 129.65 16.4309 129.732 16.4309C129.771 16.4309 129.811 16.4309 129.85 16.4309C129.932 16.4309 130.015 16.4309 130.098 16.4309C130.137 16.4309 130.176 16.4309 130.215 16.4309C130.298 16.4309 130.381 16.4309 130.464 16.4309C130.503 16.4309 130.542 16.4309 130.581 16.4309C131.118 16.4553 131.655 16.4748 132.191 16.4992C132.206 16.587 132.225 16.6748 132.24 16.7626C132.24 16.8505 132.24 16.9431 132.235 17.031C132.235 17.0651 132.235 17.0944 132.235 17.1285C132.235 23.2023 132.23 29.2712 132.23 35.345C132.23 38.9795 132.23 42.6141 132.23 46.2486C132.23 46.3705 132.23 46.4925 132.225 46.6145C132.128 46.6486 132.03 46.7023 131.933 46.7071C130.659 46.7413 129.386 46.7559 128.113 46.7998C127.679 46.8145 127.547 46.6535 127.547 46.2193C127.586 37.4282 127.615 28.637 127.64 19.8459C127.64 18.758 127.591 17.6701 127.562 16.5821C127.586 16.548 127.615 16.5138 127.64 16.4797C127.664 16.4699 127.688 16.4553 127.713 16.4407C127.786 16.4407 127.854 16.4309 127.927 16.426V16.4211Z" fill="white"/>
<path d="M87.6094 46.1459C87.6143 44.131 87.6289 42.1162 87.6289 40.1062C87.6289 33.1104 87.6289 26.1146 87.6289 19.1139C87.6289 18.8114 87.6143 18.5089 87.6094 18.2065C87.6094 18.1772 87.6094 18.143 87.6094 18.1138C87.6094 17.5966 87.6094 17.0844 87.6094 16.5673C87.6191 16.538 87.6289 16.5087 87.6338 16.4794L87.6484 16.4892C87.6777 16.4746 87.7069 16.4599 87.7362 16.4453C87.8191 16.4453 87.9021 16.4453 87.985 16.4453C88.0533 16.4453 88.1265 16.4453 88.1948 16.4453C88.2777 16.4453 88.3607 16.4453 88.4436 16.4453C88.4826 16.4453 88.5265 16.4453 88.5656 16.4453C89.0095 16.4453 89.4535 16.4355 89.9023 16.4307C89.9462 16.4307 89.9852 16.4307 90.0291 16.4307H92.1123C92.1123 16.6795 92.1123 16.8307 92.1123 16.9771C92.1123 26.7293 92.1123 36.4766 92.1123 46.2288C92.1123 46.4435 92.2342 46.7508 91.8342 46.7703C91.683 46.7606 91.5317 46.7508 91.3854 46.7362C90.2877 46.7362 89.1949 46.7411 88.0972 46.7459C88.0094 46.7508 87.9167 46.7606 87.8289 46.7655C87.7752 46.7459 87.7167 46.7313 87.663 46.7118C87.6728 46.6776 87.663 46.6581 87.6289 46.6484C87.624 46.6093 87.6191 46.5654 87.6143 46.5264C87.6143 46.4971 87.6143 46.463 87.6143 46.4337C87.6143 46.3752 87.6143 46.3117 87.6143 46.2532C87.6143 46.2239 87.6143 46.1898 87.6143 46.1605L87.6094 46.1459Z" fill="white"/>
<path d="M239.821 46.7218C238.908 46.7169 237.996 46.6974 237.084 46.7071C236.557 46.712 236.03 46.751 235.503 46.7949C235.23 46.8193 235.064 46.7266 234.908 46.5022C233.366 44.3264 231.815 42.1554 230.264 39.9845C228.995 38.2087 227.722 36.4329 226.448 34.662C226.195 34.3059 226.063 34.3108 225.809 34.662C222.985 38.5844 220.16 42.5116 217.34 46.4388C217.067 46.8145 216.672 46.7852 216.291 46.7852C215.189 46.7803 214.081 46.751 212.979 46.7364C212.945 46.7364 212.915 46.7364 212.881 46.7413C212.823 46.7413 212.759 46.7413 212.701 46.7413C212.55 46.7315 212.393 46.7169 212.242 46.7071H212.237C212.237 46.6144 212.228 46.5217 212.223 46.4242C213.462 44.7021 214.706 42.9848 215.945 41.2627C218.16 38.1843 220.365 35.106 222.58 32.0325C222.853 31.6519 223.155 31.2909 223.453 30.925C223.609 30.7348 223.614 30.5787 223.453 30.364C221.648 27.9833 219.858 25.5977 218.062 23.2072C216.54 21.1826 215.023 19.1531 213.506 17.1285C213.398 16.9822 213.276 16.8407 213.208 16.6748C213.184 16.6114 213.281 16.4943 213.325 16.4016C213.364 16.4065 213.398 16.4114 213.437 16.4211C214.116 16.4309 214.799 16.4406 215.477 16.4406C216.34 16.4406 217.199 16.4406 218.062 16.4406C218.101 16.4553 218.135 16.4699 218.174 16.4894C219.018 17.6017 219.862 18.7092 220.697 19.8263C222.385 22.0851 224.073 24.3488 225.751 26.6173C226 26.9539 226.151 26.9246 226.385 26.6075C228.751 23.417 231.132 20.2313 233.513 17.0505C233.669 16.8407 233.874 16.6602 234.054 16.465C234.122 16.4553 234.196 16.4406 234.264 16.4309C234.615 16.4309 234.971 16.4406 235.323 16.4455C235.366 16.4455 235.41 16.4455 235.454 16.4406C235.532 16.4406 235.61 16.4406 235.693 16.4406C235.737 16.4406 235.776 16.4406 235.82 16.4406C236.606 16.4553 237.386 16.4699 238.172 16.4797C238.24 16.4797 238.303 16.4797 238.372 16.4797C238.562 16.4894 238.757 16.4992 238.947 16.5089C238.855 16.7041 238.786 16.9187 238.659 17.0895C236.513 19.9532 234.357 22.812 232.2 25.6757C231.088 27.1539 229.99 28.6468 228.863 30.1152C228.619 30.4323 228.644 30.6616 228.858 30.9592C232.473 35.9841 236.088 41.0139 239.699 46.0436C239.806 46.19 239.918 46.3364 240.001 46.4974C240.025 46.5461 239.952 46.6437 239.923 46.7218C239.889 46.7218 239.86 46.7315 239.825 46.7364L239.821 46.7218Z" fill="white"/>
<path d="M35.4817 29.1101C36.4183 29.1101 37.355 29.1052 38.2917 29.1003C38.3307 29.1003 38.3649 29.1101 38.4039 29.115C40.6627 29.2467 42.9117 29.437 45.1363 29.8565C48.4293 30.4761 51.6345 31.403 54.6738 32.7983C57.0448 33.8862 59.3475 35.1205 61.6697 36.3108C65.031 38.0378 68.3777 39.7941 71.7341 41.526C72.2561 41.7943 72.8074 42.0187 73.3489 42.2627C73.3489 42.2968 73.3684 42.3163 73.3977 42.331C73.4026 42.3895 73.4123 42.448 73.4172 42.5066C73.4172 42.5407 73.4172 42.57 73.4221 42.6042C73.4123 45.3947 73.4026 48.1852 73.3977 50.9757C73.3977 51.8246 73.4026 52.6735 73.4075 53.5223C73.4075 53.6443 73.4172 53.7663 73.4172 53.8882C73.4172 53.9468 73.4172 54.0102 73.4172 54.0687C73.3733 54.1565 73.3294 54.2492 73.2855 54.3371C71.3097 53.3272 69.3339 52.3271 67.3678 51.3075C64.6017 49.8781 61.8502 48.4291 59.084 46.9997C56.235 45.5313 53.4054 44.0336 50.5222 42.6383C48.0927 41.4626 45.4973 40.7357 42.8434 40.2625C41.7164 40.0624 40.5651 39.9697 39.4186 39.877C38.2575 39.7844 37.0916 39.6965 35.9256 39.7063C35.0133 39.7112 34.0961 39.8331 33.1936 39.9697C31.6178 40.2039 30.0372 40.4186 28.4907 40.7698C25.4172 41.4675 22.5779 42.7505 19.7971 44.219C15.1284 46.6875 10.4206 49.0877 5.73229 51.5173C4.05895 52.3856 2.39537 53.2638 0.726903 54.1322C0.531761 54.2346 0.317105 54.2883 0 54.4053C0.0390284 53.6053 0.0731782 52.9174 0.107328 52.2295C0.112207 52.0929 0.117085 51.9563 0.117085 51.8197C0.117085 49.4536 0.126842 47.0875 0.117085 44.7214C0.117085 44.0726 0.0731782 43.4286 0.0292713 42.7798C0.00975709 42.4968 0.117085 42.3456 0.370769 42.2187C3.01006 40.8771 5.64935 39.5355 8.27401 38.1744C10.04 37.2573 11.7719 36.2816 13.5428 35.3742C17.3286 33.4374 21.1534 31.5884 25.3196 30.559C27.4125 30.0419 29.5152 29.5736 31.6715 29.4028C32.8765 29.3101 34.0815 29.2125 35.2865 29.115C35.3548 29.115 35.4182 29.115 35.4865 29.115L35.4817 29.1101Z" fill="white"/>
<path d="M0.225454 0.804876C0.732822 1.03905 1.24507 1.25858 1.74268 1.51714C4.45027 2.92704 7.14811 4.35158 9.8557 5.76148C13.3975 7.60557 16.954 9.42526 20.486 11.2889C23.7596 13.0159 27.2087 14.2355 30.8481 14.9087C32.7702 15.2649 34.7119 15.4015 36.6682 15.4015C40.3905 15.4015 44.0543 14.9331 47.5571 13.6403C49.5866 12.889 51.6063 12.1036 53.504 11.0205C55.6896 9.77652 57.9874 8.72275 60.2267 7.56654C62.0854 6.60059 63.9246 5.59561 65.7785 4.62478C66.5298 4.22961 67.3152 3.89299 68.0665 3.49783C69.5301 2.72702 70.979 1.92694 72.4377 1.14637C72.7109 1.00002 73.0085 0.902447 73.3939 0.741455C73.3939 1.01465 73.3939 1.17077 73.3939 1.33176C73.3939 4.39548 73.4036 7.45921 73.4036 10.5229C73.4036 11.1962 73.3841 11.8694 73.3353 12.5378C73.3256 12.6793 73.1646 12.8549 73.0231 12.9281C71.2034 13.9038 69.3788 14.8697 67.5494 15.821C64.0759 17.631 60.6121 19.4604 57.1142 21.2216C53.6602 22.9583 50.05 24.2999 46.2399 25.0415C44.9129 25.3 43.5811 25.5781 42.2395 25.7489C41.1174 25.8952 39.9758 25.8904 38.844 25.9635C38.2391 26.0026 37.639 26.0757 37.0389 26.1245C36.8584 26.1392 36.6731 26.1392 36.4926 26.1245C35.1656 26.0367 33.8337 25.9733 32.5068 25.8464C31.4481 25.744 30.3797 25.622 29.3406 25.4025C27.3599 24.9829 25.3743 24.5634 23.4229 24.0121C20.3251 23.1389 17.4321 21.768 14.6025 20.2508C12.1145 18.9189 9.5825 17.6602 7.07981 16.3626C4.85519 15.2112 2.63545 14.0452 0.425474 12.8695C0.283996 12.7915 0.147397 12.5524 0.142518 12.3865C0.123004 9.38624 0.127883 6.38105 0.127883 3.37587C0.127883 3.34172 0.127883 3.30757 0.127883 3.27342C0.127883 2.70263 0.118126 2.13184 0.113247 1.55617C0.10349 1.39518 0.0986115 1.23419 0.0888544 1.06832C0.0839758 1.01953 0.0790973 0.970747 0.0742188 0.92684C0.0839758 0.917083 0.0986115 0.902447 0.0986115 0.89269C0.0986115 0.863419 0.0888544 0.839026 0.0839758 0.809755C0.0986115 0.790241 0.113247 0.770726 0.13764 0.751212C0.17179 0.765848 0.210818 0.780483 0.244968 0.795119L0.225454 0.804876Z" fill="white"/>
<path d="M160.14 46.6827C159.038 46.6925 157.93 46.6973 156.828 46.7071C156.662 46.7071 156.496 46.7217 156.33 46.7315C156.296 46.7315 156.267 46.7315 156.232 46.7315C156.169 46.7315 156.11 46.7364 156.047 46.7412C155.954 46.7364 155.866 46.7266 155.774 46.7217C155.745 46.5363 155.686 46.3461 155.686 46.1607C155.686 40.3064 155.705 34.4522 155.666 28.5979C155.657 26.8563 155.403 25.1293 154.574 23.5486C153.622 21.7387 152.144 20.5727 150.105 20.3239C146.466 19.8848 143.758 21.6606 142.45 25.0122C141.982 26.2172 141.782 27.4759 141.787 28.7833C141.807 34.6083 141.797 40.4284 141.797 46.2534C141.797 46.468 141.88 46.7364 141.514 46.751C141.363 46.7412 141.216 46.7315 141.065 46.7168C139.967 46.7168 138.875 46.7168 137.777 46.7217C137.626 46.7168 137.474 46.7071 137.318 46.7022C137.299 46.6876 137.274 46.6778 137.25 46.6729C137.235 46.6193 137.226 46.5607 137.211 46.5071C137.211 46.4729 137.201 46.4339 137.196 46.3997C137.196 38.4282 137.196 30.4567 137.196 22.4802C137.196 20.602 137.196 18.7238 137.191 16.8406C137.191 16.7723 137.201 16.704 137.206 16.6406L137.318 16.3821C137.352 16.3869 137.391 16.3967 137.426 16.4016C137.538 16.4064 137.65 16.4162 137.757 16.4211C137.796 16.4211 137.84 16.4211 137.879 16.4211C137.962 16.4211 138.045 16.4211 138.128 16.4162C138.167 16.4162 138.211 16.4162 138.25 16.4162C138.45 16.4162 138.655 16.4211 138.855 16.426C138.894 16.426 138.938 16.4162 138.977 16.4162C139.055 16.4162 139.138 16.4162 139.216 16.4162C139.26 16.4162 139.299 16.4162 139.343 16.4162C139.421 16.4162 139.504 16.4162 139.582 16.4162C139.621 16.4162 139.665 16.4162 139.704 16.4162H141.787V20.641L141.909 20.724C142.046 20.5776 142.211 20.4459 142.319 20.2849C143.192 19.0018 144.236 17.8895 145.622 17.1431C146.714 16.5577 147.875 16.2211 149.124 16.0991C150.783 15.9381 152.393 16.0503 153.949 16.6406C156.066 17.4407 157.696 18.7969 158.637 20.8996C158.769 21.1923 158.925 21.4801 159.106 21.846C159.447 21.2752 159.716 20.7727 160.033 20.3044C161.809 17.6993 164.297 16.3674 167.438 16.0991C169.497 15.9235 171.478 16.0991 173.337 17.0163C176.19 18.4262 177.791 20.7727 178.435 23.8609C178.918 26.1782 178.903 28.515 178.903 30.8567C178.903 35.984 178.903 41.1065 178.903 46.2339C178.903 46.268 178.903 46.307 178.903 46.3412C178.922 46.6534 178.742 46.7168 178.474 46.712C177.713 46.7022 176.952 46.6924 176.19 46.712C175.59 46.7266 174.985 46.7754 174.312 46.8144V46.1997C174.312 40.1162 174.351 34.0375 174.293 27.954C174.273 25.9928 173.834 24.0902 172.527 22.4997C171.312 21.0264 169.751 20.3678 167.843 20.2898C163.828 20.119 161.233 22.9388 160.433 26.3148C160.238 27.1392 160.15 27.9686 160.15 28.8175C160.169 34.4912 160.164 40.1601 160.169 45.8338C160.169 45.9704 160.184 46.107 160.189 46.2436C160.189 46.2729 160.189 46.307 160.194 46.3363C160.194 46.429 160.194 46.5168 160.194 46.6095C160.174 46.6339 160.16 46.6632 160.14 46.6876V46.6827Z" fill="white"/>
<path d="M211.582 32.6227C209.484 32.6227 207.381 32.6227 205.284 32.6178C199.532 32.6129 193.78 32.6031 188.028 32.5983C187.955 32.5983 187.882 32.6129 187.721 32.6324C187.765 33.0568 187.789 33.4666 187.853 33.8716C188.194 36.0767 188.882 38.1403 190.365 39.8673C192.126 41.926 194.385 43.0383 197.073 43.3311C197.195 43.3457 197.317 43.3603 197.434 43.375C197.493 43.3798 197.556 43.3847 197.615 43.3896C197.649 43.3896 197.678 43.3896 197.712 43.3945C197.951 43.3945 198.195 43.3945 198.434 43.3994C198.468 43.3994 198.498 43.3994 198.532 43.3994C200.591 43.5311 202.576 43.1798 204.508 42.4773C206.435 41.7748 208.133 40.7259 209.606 39.155C209.64 39.3648 209.665 39.4575 209.665 39.5551C209.665 41.0284 209.679 42.4968 209.655 43.9701C209.655 44.1653 209.523 44.419 209.367 44.5361C207.63 45.8435 205.65 46.6192 203.562 47.1656C201.527 47.6974 199.454 47.8047 197.376 47.6876C195.044 47.5608 192.79 47.0827 190.731 45.8874C189.687 45.2825 188.633 44.7019 187.784 43.8384C185.535 41.5504 184.072 38.8526 183.535 35.662C183.262 34.0521 183.096 32.4275 183.199 30.8078C183.55 25.0219 185.843 20.3287 191.112 17.4211C192.804 16.4893 194.639 15.9673 196.58 15.8453C197.102 15.8112 197.624 15.7136 198.146 15.6843C198.473 15.6648 198.805 15.7283 199.137 15.7478C201.166 15.8697 203.142 16.2356 204.923 17.265C208.235 19.1725 210.587 21.8703 211.572 25.6122C211.84 26.6416 212.006 27.7051 212.123 28.7637C212.25 29.8955 212.26 31.042 212.319 32.1836C212.328 32.3836 212.343 32.5934 212.055 32.6129C212.021 32.6129 211.982 32.6129 211.948 32.6178C211.865 32.6178 211.777 32.6178 211.694 32.6227C211.655 32.6227 211.621 32.6227 211.582 32.6227ZM206.918 28.5247C206.962 28.5247 207.001 28.5247 207.045 28.5247C207.279 28.5637 207.401 28.5149 207.396 28.2222C207.381 27.2465 207.201 26.3049 206.786 25.4219C205.079 21.7825 201.342 19.3628 196.512 20.0799C192.565 20.6653 188.653 24.0657 188.092 28.1149C188.043 28.4613 188.082 28.5783 188.438 28.5783C193.487 28.5637 198.537 28.5539 203.586 28.5442C204.698 28.5442 205.806 28.5296 206.918 28.5198V28.5247Z" fill="white"/>
<path d="M99.5283 16.4212C100.099 16.4309 100.665 16.4456 101.236 16.4553C101.275 16.4553 101.314 16.4553 101.353 16.4553C101.402 16.4456 101.455 16.4407 101.504 16.4309C101.548 16.4358 101.587 16.4456 101.631 16.4505C101.665 16.4895 101.704 16.5285 101.738 16.5675C101.748 16.631 101.758 16.6895 101.768 16.7529C101.738 17.997 101.709 19.2361 101.689 20.4801C101.689 20.5679 101.758 20.7143 101.821 20.7289C101.919 20.7485 102.05 20.7045 102.148 20.6509C102.221 20.6119 102.27 20.5192 102.324 20.446C104.041 17.9677 106.431 16.5919 109.407 16.2163C110.315 16.1041 111.242 15.9968 112.154 16.0455C115.667 16.226 118.647 17.5091 120.755 20.4265C121.506 21.4656 121.916 22.6608 122.199 23.9244C122.565 25.5587 122.662 27.1979 122.662 28.8566C122.662 34.6474 122.662 40.4431 122.657 46.234C122.657 46.2681 122.657 46.3071 122.657 46.3413C122.648 46.4291 122.638 46.512 122.628 46.5999C122.599 46.634 122.57 46.6633 122.545 46.6974C122.209 46.7267 121.877 46.7852 121.54 46.7804C120.623 46.7804 119.711 46.7462 118.794 46.7267C118.579 46.7169 118.369 46.7072 118.155 46.6974C118.13 46.073 118.101 45.4485 118.091 44.8241C118.091 44.6631 118.15 44.4972 118.15 44.3362C118.155 39.043 118.184 33.7498 118.15 28.4566C118.135 26.5051 117.672 24.6464 116.462 23.0414C115.374 21.6022 113.905 20.7485 112.159 20.4509C109.09 19.924 106.285 20.4655 104.012 22.7682C102.958 23.8317 102.309 25.1343 102.016 26.5832C101.841 27.4321 101.738 28.3102 101.733 29.1786C101.709 34.6523 101.724 40.126 101.733 45.6046C101.733 45.8144 101.748 46.0291 101.753 46.2388C101.753 46.2681 101.753 46.3023 101.758 46.3315C101.758 46.4242 101.758 46.512 101.758 46.6047C101.738 46.6291 101.724 46.6584 101.704 46.6828C100.602 46.6926 99.4941 46.6974 98.3916 46.7072C98.2257 46.7072 98.0598 46.7218 97.894 46.7316C97.8598 46.7316 97.8306 46.7316 97.7964 46.7316C97.733 46.7316 97.6744 46.7365 97.611 46.7413C97.5183 46.7365 97.4305 46.7267 97.3378 46.7218C97.3085 46.5657 97.25 46.4096 97.25 46.2535C97.25 36.4525 97.25 26.6515 97.25 16.8554C97.25 16.709 97.3573 16.5627 97.411 16.4114C97.4793 16.4114 97.5525 16.4114 97.6208 16.4114C97.733 16.4114 97.8452 16.4114 97.9525 16.4114C97.9964 16.4114 98.0354 16.4114 98.0794 16.4114C98.5233 16.4114 98.9721 16.4114 99.4161 16.4114C99.46 16.4114 99.499 16.4114 99.5429 16.4114L99.5283 16.4212Z" fill="white"/>
<path d="M131.93 13.3426H127.598V8.39087C129.11 8.39087 130.652 8.39087 132.198 8.39087C132.213 8.42014 132.232 8.44453 132.247 8.4738C132.247 8.53235 132.237 8.59089 132.232 8.65431C132.232 8.68846 132.232 8.71773 132.232 8.75188C132.232 8.8397 132.232 8.93239 132.232 9.0202C132.232 9.05435 132.232 9.08362 132.232 9.11777C132.227 10.3764 132.223 11.6302 132.203 12.8889C132.203 13.0401 132.096 13.1865 132.037 13.3377C131.998 13.3377 131.964 13.3475 131.925 13.3475L131.93 13.3426Z" fill="white"/>
<path d="M87.6533 8.38598H92.1123C92.1123 9.6544 92.1123 10.8936 92.1123 12.1327C92.1123 12.4352 92.1269 12.7425 92.1025 13.0401C92.0927 13.1523 92.0001 13.2548 91.9415 13.3621C91.8732 13.3572 91.8049 13.3475 91.7366 13.3426C90.4926 13.3377 89.2534 13.3328 88.0094 13.3231C87.9704 13.3231 87.9362 13.3231 87.8972 13.3231C87.8338 13.3182 87.7703 13.3084 87.7118 13.3036C87.6825 13.2743 87.6581 13.245 87.6289 13.2157L87.6142 13.206C87.6142 13.1718 87.6045 13.1426 87.5996 13.1084C87.5996 12.9864 87.6094 12.8694 87.6094 12.7474C87.6094 12.7133 87.6094 12.684 87.6094 12.6498C87.6094 12.562 87.6094 12.4693 87.6094 12.3815C87.6094 12.3474 87.6094 12.3181 87.6094 12.2839C87.6094 11.5863 87.6094 10.8936 87.6094 10.1959C87.6094 10.1618 87.6094 10.1325 87.6094 10.0984C87.6045 9.58123 87.5947 9.06898 87.5898 8.55185C87.6094 8.49331 87.6289 8.43477 87.6533 8.3811V8.38598Z" fill="white"/>
</g>
<defs>
<clipPath id="clip0_417_250">
<rect width="240" height="53.6737" fill="white" transform="translate(0 0.731689)"/>
</clipPath>
</defs>
</svg>
