<svg width="151" height="31" viewBox="0 0 151 31" fill="none" xmlns="http://www.w3.org/2000/svg">
<path d="M118.975 16.6267L108.171 0.224365H103.422V27.014H108.746V10.5734L119.55 27.014H124.299V0.224365H118.975V16.6267Z" fill="white"/>
<path d="M71.505 0.225082H76.8291V27.0099H72.0803L61.2811 10.5693V27.0099H55.957V0.225082H60.7058L71.505 16.6274V0.225082ZM100.202 13.6199C100.202 16.0192 100.173 17.9443 99.8755 19.6013C98.5689 29.7205 90.105 30.4101 90.105 30.4101V27.2398C86.9798 27.235 84.6494 26.2197 82.8113 24.4191C80.0908 21.7468 80.0518 18.7393 80.0518 13.6199C80.0518 8.50045 80.0908 5.49297 82.8113 2.82071C84.6494 1.01527 86.9847 0 90.1294 0C93.2741 0 95.5656 1.01527 97.4085 2.82071C100.129 5.49297 100.202 8.50045 100.202 13.6199ZM86.6824 21.1051C87.4869 21.9719 88.6765 22.5705 90.1294 22.5705C91.5823 22.5705 92.7719 21.9671 93.5374 21.1051C94.532 19.9749 94.8782 18.7345 94.8782 13.6199C94.8782 8.50524 94.532 7.22179 93.5374 6.09638C92.7719 5.22958 91.5823 4.66926 90.1294 4.66926C88.6765 4.66926 87.4869 5.23436 86.6824 6.09638C85.6878 7.22658 85.3807 8.50524 85.3807 13.6199C85.3807 18.7345 85.6878 19.9797 86.6824 21.1051ZM150.2 27.0099H144.647L143.038 22.2688H133.346L131.698 27.0099H126.145L136.062 0.225082H140.235L150.196 27.0099H150.2ZM141.62 17.8677L138.285 8.12212L134.838 17.8677H141.62Z" fill="white"/>
<path d="M2.98868 16.4308L2.73516 15.2144H1.28226L1.03361 16.4308H0L1.54066 10.2817H2.50113L4.02229 16.4308H2.99356H2.98868ZM2.01358 11.7663L1.47728 14.3428H2.54989L2.01358 11.7663Z" fill="white"/>
<path d="M9.4848 16.4978C8.90461 16.4978 8.52432 16.2727 8.2708 15.971C7.85638 15.4873 7.8125 14.8121 7.8125 13.3514C7.8125 11.8908 7.85638 11.2156 8.2708 10.7319C8.52432 10.4302 8.90461 10.2051 9.4848 10.2051C9.96747 10.2051 10.338 10.3583 10.6013 10.6217C10.9084 10.933 11.0693 11.3832 11.084 11.91H10.0991C10.0894 11.5747 10.0211 11.0815 9.4848 11.0815C9.2459 11.0815 9.10451 11.1772 9.01675 11.3161C8.82173 11.6083 8.79735 12.2308 8.79735 13.3562C8.79735 14.4816 8.82173 15.0994 9.01675 15.3963C9.10451 15.5352 9.2459 15.631 9.4848 15.631C9.91384 15.631 10.0991 15.267 10.0991 14.8456V13.8878H9.4848V13.0928H11.084V14.7929C11.084 15.9183 10.4258 16.5026 9.4848 16.5026V16.4978Z" fill="white"/>
<path d="M15.3359 16.4318V10.2827H17.9638V11.1543H16.3208V12.8975H17.7347V13.7691H16.3208V15.5554H17.9638V16.427H15.3359V16.4318ZM17.2081 9.8661L16.6816 9.15733L16.1648 9.8661H15.4529L16.3257 8.66406H17.057L17.9297 9.8661H17.2179H17.2081Z" fill="white"/>
<path d="M24.6106 16.4308L23.1333 12.7768V16.4308H22.1484V10.2817H23.026L24.4936 13.9357V10.2817H25.4784V16.4308H24.6057H24.6106Z" fill="white"/>
<path d="M32.4851 16.1097C32.2023 16.3683 31.8806 16.4976 31.4028 16.4976C30.8226 16.4976 30.4423 16.2725 30.1888 15.9708C29.7743 15.4871 29.7305 14.8118 29.7305 13.3512C29.7305 11.8906 29.7743 11.2153 30.1888 10.7316C30.4423 10.4299 30.8226 10.2048 31.4028 10.2048C31.8757 10.2048 32.2219 10.3437 32.4998 10.6023C32.8167 10.8897 32.9824 11.3542 33.0019 11.9001H32.0171C32.0073 11.6751 31.9732 11.45 31.8659 11.3063C31.7782 11.1674 31.6368 11.0812 31.3979 11.0812C31.159 11.0812 31.0176 11.177 30.9298 11.3159C30.7348 11.608 30.7104 12.2306 30.7104 13.356C30.7104 14.4814 30.7348 15.0992 30.9298 15.3961C31.0176 15.535 31.159 15.6308 31.3979 15.6308C31.6368 15.6308 31.7782 15.5446 31.8659 15.4057C31.9732 15.2524 32.0073 15.0273 32.0171 14.8023H33.0019C32.9824 15.353 32.802 15.8319 32.4851 16.1144V16.1097Z" fill="white"/>
<path d="M37.1758 16.4308V10.2817H38.1606V16.4308H37.1758Z" fill="white"/>
<path d="M45.2006 16.4308L44.9471 15.2144H43.4942L43.2455 16.4308H42.207L43.7477 10.2817H44.7082L46.2293 16.4308H45.2006ZM44.2255 11.7663L43.6892 14.3428H44.7618L44.2255 11.7663Z" fill="white"/>
</svg>
