<svg width="126" height="126" viewBox="0 0 126 126" fill="none" xmlns="http://www.w3.org/2000/svg">
<path d="M98.2661 39.4916C104.482 39.4916 109.52 34.4529 109.52 28.2373C109.52 22.0216 104.482 16.9829 98.2661 16.9829C92.0505 16.9829 87.0117 22.0216 87.0117 28.2373C87.0117 34.4529 92.0505 39.4916 98.2661 39.4916Z" stroke="white" stroke-width="4" stroke-linecap="round" stroke-linejoin="round"/>
<path d="M98.2656 2.91504V5.72862" stroke="white" stroke-width="4" stroke-linecap="round" stroke-linejoin="round"/>
<path d="M80.3594 10.3291L82.35 12.3197" stroke="white" stroke-width="4" stroke-linecap="round" stroke-linejoin="round"/>
<path d="M72.9453 28.2373H75.7589" stroke="white" stroke-width="4" stroke-linecap="round" stroke-linejoin="round"/>
<path d="M80.3594 46.1459L82.35 44.1553" stroke="white" stroke-width="4" stroke-linecap="round" stroke-linejoin="round"/>
<path d="M98.2656 53.5597V50.7461" stroke="white" stroke-width="4" stroke-linecap="round" stroke-linejoin="round"/>
<path d="M116.174 46.1459L114.184 44.1553" stroke="white" stroke-width="4" stroke-linecap="round" stroke-linejoin="round"/>
<path d="M123.591 28.2373H120.777" stroke="white" stroke-width="4" stroke-linecap="round" stroke-linejoin="round"/>
<path d="M116.174 10.3291L114.184 12.3197" stroke="white" stroke-width="4" stroke-linecap="round" stroke-linejoin="round"/>
<path d="M14 60L2 108H98L86 60H14Z" stroke="white" stroke-width="4" stroke-linecap="round" stroke-linejoin="round"/>
<path d="M38 60L30 108" stroke="white" stroke-width="4" stroke-linecap="round" stroke-linejoin="round"/>
<path d="M62 60L70 108" stroke="white" stroke-width="4" stroke-linecap="round" stroke-linejoin="round"/>
<path d="M9.26953 84H89.9995" stroke="white" stroke-width="4" stroke-linecap="round" stroke-linejoin="round"/>
<path d="M50 108V124" stroke="white" stroke-width="4" stroke-linecap="round" stroke-linejoin="round"/>
</svg>
