<svg width="40" height="96" viewBox="0 0 40 96" fill="none" xmlns="http://www.w3.org/2000/svg">
<path d="M30.983 61.4206V12.4912C30.983 6.49107 26.115 1.62305 20.1148 1.62305C14.1147 1.62305 9.24669 6.49107 9.24669 12.4912V61.4206C4.2247 65.1972 1.21785 71.5052 2.17787 78.4654C3.29186 86.5259 9.91234 92.9653 17.9955 93.8801C28.9452 95.1209 38.2239 86.5894 38.2239 75.8888C38.2239 69.9701 35.371 64.7263 30.9785 61.4206H30.983Z" stroke="white" stroke-width="3" stroke-linecap="round" stroke-linejoin="round"/>
<path d="M16.4922 75.8885L20.1149 79.5112L23.7376 75.8885" stroke="white" stroke-width="3" stroke-linecap="round" stroke-linejoin="round"/>
<path d="M20.1172 75.8887V12.4911" stroke="white" stroke-width="3" stroke-linecap="round" stroke-linejoin="round"/>
<path d="M9.24609 54.1523H12.8688" stroke="white" stroke-width="3" stroke-linecap="round" stroke-linejoin="round"/>
<path d="M9.24609 43.2842H12.8688" stroke="white" stroke-width="3" stroke-linecap="round" stroke-linejoin="round"/>
<path d="M9.24609 32.416H12.8688" stroke="white" stroke-width="3" stroke-linecap="round" stroke-linejoin="round"/>
</svg>
